# xmcd
#
# Track frame offsets:
#	150
#	30484
#	48249
#	76989
#	112943
#	127889
#	143152
#	166356
#	192567
#	236862
#	258309
#	272286
#	285494
#	299866
#	312814
#	325699
#	338544
#
# Disc length: 4689
#
# Revision: 4
# Processed by: cddbd v1.5.1PL0 Copyright (c) Steve Scherf et al.
# Submitted via: Kscd 1.3.0
# Normalized: r2:TDELIM( - ),TSWAP
#
DISCID=ed124f11
DTITLE=Big Joe Turner - Big Maceo - Shake, Rattle and Roll - Worried Life Blu
DYEAR=1900
DGENRE=
TTITLE0=Big Joe Turner - How Long Blues
TTITLE1=Big Joe Turner - Roll 'em Pete
TTITLE2=Big Joe Turner - Stormy Monday Blues
TTITLE3=Big Joe Turner - Roll me Baby
TTITLE4=Big Joe Turner - Shake, Rattle and Roll
TTITLE5=Big Joe Turner - When The Sun Goes Down
TTITLE6=Big Joe Turner - TV Mama
TTITLE7=Big Joe Turner - Honey Hush
TTITLE8=Big Joe Turner - Everyday I Have The Blues
TTITLE9=Big Joe Turner - Chicken And the Hawk
TTITLE10=Big Joe Turner - Cherry Red
TTITLE11=Big Maceo - County Jail Blues
TTITLE12=Big Maceo - Why Should I Hang Around?
TTITLE13=Big Maceo - Anytime For You
TTITLE14=Big Maceo - Since You Been Gone
TTITLE15=Big Maceo - I Got The Blues
TTITLE16=Big Maceo - Worried Life Blues No. 1
EXTD=
EXTT0=
EXTT1=
EXTT2=
EXTT3=
EXTT4=
EXTT5=
EXTT6=
EXTT7=
EXTT8=
EXTT9=
EXTT10=
EXTT11=
EXTT12=
EXTT13=
EXTT14=
EXTT15=
EXTT16=
PLAYORDER=
